<svg width="60" height="60" viewBox="0 0 60 60" fill="none" xmlns="http://www.w3.org/2000/svg">
<rect width="60" height="60" rx="30" fill="#00D5C4"/>
<path d="M40 34H34V32H40V34ZM44 42H38V40H44V42ZM42 38H36V36H42V38Z" fill="white"/>
<path d="M31.003 34C30.996 33.1562 30.7709 32.3286 30.3497 31.5974C29.9285 30.8662 29.3254 30.2564 28.599 29.827L36 17L34.27 16L26.693 29.126C25.7631 28.9183 24.796 28.947 23.88 29.2096C22.9641 29.4721 22.1286 29.9602 21.45 30.629C17.706 34.24 17.996 42.682 18.01 43.04C18.0204 43.2982 18.1303 43.5424 18.3167 43.7214C18.5031 43.9004 18.7516 44.0002 19.01 44H34.001C34.2109 44 34.4155 43.934 34.5857 43.8112C34.756 43.6885 34.8833 43.5153 34.9497 43.3162C35.0161 43.1171 35.0181 42.9022 34.9555 42.7018C34.893 42.5015 34.7689 42.3259 34.601 42.2C31.061 39.544 31.003 34.054 31.003 34ZM25.93 30.997C26.7304 31.0058 27.4966 31.3228 28.0691 31.8822C28.6417 32.4415 28.9765 33.2001 29.004 34C29.004 34.038 29.006 34.208 29.021 34.469L23.121 31.845C23.5097 31.5245 23.9581 31.2845 24.4404 31.1389C24.9226 30.9934 25.429 30.9451 25.93 30.997ZM29.45 42C28.6507 41.1861 28.1412 40.132 28 39H26C26.0716 40.0643 26.4041 41.0946 26.968 42H24.745C24.3338 40.7022 24.0836 39.3588 24 38H22C22.0645 39.3547 22.2877 40.6973 22.665 42H20C20.031 40.164 20.29 36.108 21.803 33.447L29.336 36.797C29.6979 38.6763 30.4696 40.4528 31.596 42H29.45Z" fill="white"/>
</svg>
