<svg width="60" height="61" viewBox="0 0 60 61" fill="none" xmlns="http://www.w3.org/2000/svg">
<rect y="0.599976" width="60" height="60" rx="30" fill="#00D5C4"/>
<path d="M42.0832 20.2448C42.1447 20.1115 42.1656 19.9631 42.1434 19.8179C42.1213 19.6728 42.057 19.5374 41.9586 19.4284C41.8602 19.3195 41.732 19.2418 41.5899 19.205C41.4478 19.1683 41.298 19.174 41.1591 19.2216L18.9238 26.8291L18.9223 26.829L18.2315 27.0642C18.1006 27.1088 17.9847 27.1887 17.8964 27.2951C17.8081 27.4015 17.751 27.5303 17.7313 27.6671C17.7116 27.8039 17.7301 27.9436 17.7847 28.0705C17.8394 28.1975 17.9281 28.3069 18.041 28.3867L18.6354 28.8074L18.6367 28.8105L25.8769 33.9521L30.2567 41.677L30.2595 41.6801L30.6177 42.3142C30.6858 42.4342 30.7857 42.5331 30.9064 42.5999C31.0271 42.6668 31.164 42.6991 31.3018 42.6932C31.4397 42.6874 31.5733 42.6436 31.6879 42.5667C31.8025 42.4898 31.8936 42.3828 31.9513 42.2574L42.0832 20.2448ZM39.1933 22.9363L27.3957 33.5909L27.0994 33.0681C27.0451 32.9722 26.9704 32.8894 26.8804 32.8257L26.3905 32.4778L38.1881 21.8233L39.9887 21.2075L39.1948 22.9364L39.1933 22.9363Z" fill="white"/>
</svg>
